<?xml version="1.0" standalone="no"?>
<!DOCTYPE svg PUBLIC "-//W3C//DTD SVG 20010904//EN"
 "http://www.w3.org/TR/2001/REC-SVG-20010904/DTD/svg10.dtd">
<svg version="1.0" xmlns="http://www.w3.org/2000/svg"
 width="190.000000pt" height="190.000000pt" viewBox="0 0 190.000000 190.000000"
 preserveAspectRatio="xMidYMid meet">
<metadata>
Created by potrace 1.11, written by Peter Selinger 2001-2013
</metadata>
<g transform="translate(0.000000,190.000000) scale(0.100000,-0.100000)"
fill="#000000" stroke="none">
<path d="M772 1729 c-63 -16 -217 -81 -232 -98 -3 -4 -23 -19 -44 -35 -180
-134 -295 -363 -294 -585 0 -44 -3 -84 -7 -90 -3 -6 -1 -11 6 -11 7 0 10 -2 7
-5 -3 -3 1 -31 9 -63 8 -31 16 -69 16 -84 1 -14 5 -24 8 -22 4 2 11 -9 17 -24
22 -59 27 -68 81 -147 94 -135 284 -267 419 -290 23 -4 44 -10 47 -15 6 -9
265 -6 308 4 42 10 159 55 174 67 7 6 13 8 13 4 0 -4 6 -2 13 4 8 6 18 7 22 3
5 -4 5 -2 2 4 -4 6 9 19 28 30 19 10 35 23 35 28 0 5 3 7 6 4 6 -7 144 128
144 141 0 4 8 16 18 27 9 10 26 36 36 56 11 20 24 34 29 31 6 -3 7 -1 4 4 -8
13 12 73 24 73 4 0 6 6 3 13 -3 8 1 27 7 43 34 83 32 305 -2 419 -7 22 -13 42
-14 45 0 3 -11 28 -24 55 -79 164 -218 300 -375 370 -144 64 -335 81 -484 44z"/>
</g>
</svg>
