<svg width="10" height="16" viewBox="0 0 10 16" fill="none" xmlns="http://www.w3.org/2000/svg">
<path d="M0.5 7.20312L6.875 0.828125C7.09375 0.609375 7.35938 0.5 7.67188 0.5C7.98438 0.5 8.25 0.609375 8.46875 0.828125L9.5 1.90625C9.71875 2.125 9.82812 2.39062 9.82812 2.70312C9.82812 3.01562 9.71875 3.28125 9.5 3.5L5 8L9.5 12.5C9.65625 12.6562 9.75 12.8281 9.78125 13.0156C9.84375 13.2031 9.84375 13.4062 9.78125 13.625C9.75 13.8125 9.65625 13.9688 9.5 14.0938L8.46875 15.1719C8.25 15.3906 7.98438 15.5 7.67188 15.5C7.35938 15.5 7.09375 15.3906 6.875 15.1719L0.5 8.79688C0.28125 8.57812 0.171875 8.3125 0.171875 8C0.171875 7.6875 0.28125 7.42188 0.5 7.20312Z" fill="#333333"/>
</svg>
