<svg width="113" height="11" viewBox="0 0 113 11" fill="none" xmlns="http://www.w3.org/2000/svg">
<path d="M0.75 4.10156L3.9375 0.914062C4.04688 0.804687 4.17969 0.75 4.33594 0.75C4.49219 0.75 4.625 0.804687 4.73438 0.914062L5.25 1.45312C5.35938 1.5625 5.41406 1.69531 5.41406 1.85156C5.41406 2.00781 5.35938 2.14062 5.25 2.25L3 4.5L5.25 6.75C5.32812 6.82812 5.375 6.91406 5.39062 7.00781C5.42188 7.10156 5.42188 7.20312 5.39062 7.3125C5.375 7.40625 5.32812 7.48438 5.25 7.54688L4.73438 8.08594C4.625 8.19531 4.49219 8.25 4.33594 8.25C4.17969 8.25 4.04688 8.19531 3.9375 8.08594L0.75 4.89844C0.640625 4.78906 0.585938 4.65625 0.585938 4.5C0.585938 4.34375 0.640625 4.21094 0.75 4.10156ZM19.9172 0.456V9H19.3412L13.9172 1.716V9H13.2212V0.456H13.8092L19.2212 7.74V0.456H19.9172ZM27.1194 2.988V9H26.3874V7.848C26.2114 8.248 25.9434 8.556 25.5834 8.772C25.2314 8.98 24.8074 9.084 24.3114 9.084C23.7754 9.084 23.3034 8.96 22.8954 8.712C22.4954 8.456 22.1834 8.096 21.9594 7.632C21.7434 7.16 21.6354 6.612 21.6354 5.988C21.6354 5.364 21.7474 4.816 21.9714 4.344C22.1954 3.864 22.5074 3.496 22.9074 3.24C23.3154 2.976 23.7834 2.844 24.3114 2.844C24.7994 2.844 25.2194 2.948 25.5714 3.156C25.9314 3.364 26.2034 3.668 26.3874 4.068V2.988H27.1194ZM24.4194 8.436C25.0434 8.436 25.5274 8.22 25.8714 7.788C26.2154 7.356 26.3874 6.748 26.3874 5.964C26.3874 5.172 26.2154 4.56 25.8714 4.128C25.5274 3.696 25.0394 3.48 24.4074 3.48C23.7754 3.48 23.2834 3.704 22.9314 4.152C22.5794 4.592 22.4034 5.204 22.4034 5.988C22.4034 6.764 22.5794 7.368 22.9314 7.8C23.2834 8.224 23.7794 8.436 24.4194 8.436ZM34.2093 2.988V9H33.4773V7.848C33.3013 8.248 33.0333 8.556 32.6733 8.772C32.3213 8.98 31.8973 9.084 31.4013 9.084C30.8653 9.084 30.3933 8.96 29.9853 8.712C29.5853 8.456 29.2733 8.096 29.0493 7.632C28.8333 7.16 28.7253 6.612 28.7253 5.988C28.7253 5.364 28.8373 4.816 29.0613 4.344C29.2853 3.864 29.5973 3.496 29.9973 3.24C30.4053 2.976 30.8733 2.844 31.4013 2.844C31.8893 2.844 32.3093 2.948 32.6613 3.156C33.0213 3.364 33.2933 3.668 33.4773 4.068V2.988H34.2093ZM31.5093 8.436C32.1333 8.436 32.6173 8.22 32.9613 7.788C33.3053 7.356 33.4773 6.748 33.4773 5.964C33.4773 5.172 33.3053 4.56 32.9613 4.128C32.6173 3.696 32.1293 3.48 31.4973 3.48C30.8653 3.48 30.3733 3.704 30.0213 4.152C29.6693 4.592 29.4933 5.204 29.4933 5.988C29.4933 6.764 29.6693 7.368 30.0213 7.8C30.3733 8.224 30.8693 8.436 31.5093 8.436ZM38.7911 2.844C38.9911 2.844 39.1671 2.86 39.3191 2.892L39.2831 3.552C39.1311 3.52 38.9471 3.504 38.7311 3.504C38.1231 3.504 37.6671 3.7 37.3631 4.092C37.0671 4.476 36.9191 4.936 36.9191 5.472V9H36.1991V4.656C36.1991 4.032 36.1671 3.476 36.1031 2.988H36.7991L36.8951 4.104C37.0471 3.696 37.2911 3.384 37.6271 3.168C37.9711 2.952 38.3591 2.844 38.7911 2.844ZM46.2373 2.844C47.6853 2.844 48.4093 3.62 48.4093 5.172V9H47.6773V5.22C47.6773 4.62 47.5533 4.18 47.3053 3.9C47.0653 3.62 46.6853 3.48 46.1653 3.48C45.5653 3.48 45.0813 3.664 44.7133 4.032C44.3453 4.4 44.1613 4.896 44.1613 5.52V9H43.4413V0.167999H44.1613V4.032C44.3533 3.64 44.6293 3.344 44.9893 3.144C45.3493 2.944 45.7653 2.844 46.2373 2.844ZM50.7628 5.904V5.94C50.7628 6.748 50.9468 7.368 51.3148 7.8C51.6908 8.224 52.2348 8.436 52.9468 8.436C53.6668 8.436 54.3268 8.188 54.9268 7.692L55.2148 8.268C54.9508 8.516 54.6148 8.716 54.2068 8.868C53.7988 9.012 53.3788 9.084 52.9468 9.084C52.0348 9.084 51.3148 8.808 50.7868 8.256C50.2588 7.704 49.9948 6.944 49.9948 5.976C49.9948 5.36 50.1108 4.816 50.3428 4.344C50.5828 3.864 50.9148 3.496 51.3388 3.24C51.7628 2.976 52.2508 2.844 52.8028 2.844C53.5948 2.844 54.2108 3.1 54.6508 3.612C55.0988 4.124 55.3228 4.836 55.3228 5.748V5.904H50.7628ZM52.8028 3.444C52.2508 3.444 51.8028 3.612 51.4588 3.948C51.1148 4.276 50.8988 4.74 50.8108 5.34H54.6268C54.5788 4.724 54.3988 4.256 54.0868 3.936C53.7748 3.608 53.3468 3.444 52.8028 3.444ZM57.9027 3.576V7.152C57.9027 7.632 57.9947 7.964 58.1787 8.148C58.3627 8.332 58.6347 8.424 58.9947 8.424C59.2187 8.424 59.4347 8.388 59.6427 8.316V8.976C59.3867 9.04 59.1267 9.072 58.8627 9.072C58.3347 9.072 57.9187 8.924 57.6147 8.628C57.3187 8.332 57.1707 7.888 57.1707 7.296V3.576H55.9827V2.988H57.1707V1.392L57.9027 1.116V2.988H59.6787V3.576H57.9027ZM66.3723 9.084C65.8203 9.084 65.3323 8.956 64.9083 8.7C64.4923 8.444 64.1683 8.08 63.9363 7.608C63.7123 7.136 63.6003 6.588 63.6003 5.964C63.6003 5.34 63.7123 4.792 63.9363 4.32C64.1683 3.848 64.4923 3.484 64.9083 3.228C65.3323 2.972 65.8203 2.844 66.3723 2.844C66.9163 2.844 67.3963 2.972 67.8123 3.228C68.2283 3.484 68.5483 3.848 68.7723 4.32C69.0043 4.792 69.1203 5.34 69.1203 5.964C69.1203 6.588 69.0043 7.136 68.7723 7.608C68.5483 8.08 68.2283 8.444 67.8123 8.7C67.3963 8.956 66.9163 9.084 66.3723 9.084ZM66.3603 8.436C67.0003 8.436 67.4923 8.224 67.8363 7.8C68.1883 7.368 68.3643 6.756 68.3643 5.964C68.3643 5.18 68.1883 4.572 67.8363 4.14C67.4843 3.7 66.9963 3.48 66.3723 3.48C65.7403 3.48 65.2483 3.7 64.8963 4.14C64.5443 4.572 64.3683 5.18 64.3683 5.964C64.3683 6.764 64.5403 7.376 64.8843 7.8C65.2283 8.224 65.7203 8.436 66.3603 8.436ZM75.764 2.988L73.184 9H72.428L69.884 2.988H70.664L72.836 8.268L75.02 2.988H75.764ZM77.2941 5.904V5.94C77.2941 6.748 77.4781 7.368 77.8461 7.8C78.2221 8.224 78.7661 8.436 79.4781 8.436C80.1981 8.436 80.8581 8.188 81.4581 7.692L81.7461 8.268C81.4821 8.516 81.1461 8.716 80.7381 8.868C80.3301 9.012 79.9101 9.084 79.4781 9.084C78.5661 9.084 77.8461 8.808 77.3181 8.256C76.7901 7.704 76.5261 6.944 76.5261 5.976C76.5261 5.36 76.6421 4.816 76.8741 4.344C77.1141 3.864 77.4461 3.496 77.8701 3.24C78.2941 2.976 78.7821 2.844 79.3341 2.844C80.1261 2.844 80.7421 3.1 81.1821 3.612C81.6301 4.124 81.8541 4.836 81.8541 5.748V5.904H77.2941ZM79.3341 3.444C78.7821 3.444 78.3341 3.612 77.9901 3.948C77.6461 4.276 77.4301 4.74 77.3421 5.34H81.1581C81.1101 4.724 80.9301 4.256 80.6181 3.936C80.3061 3.608 79.8781 3.444 79.3341 3.444ZM86.0177 2.844C86.2177 2.844 86.3937 2.86 86.5457 2.892L86.5097 3.552C86.3577 3.52 86.1737 3.504 85.9577 3.504C85.3497 3.504 84.8937 3.7 84.5897 4.092C84.2937 4.476 84.1457 4.936 84.1457 5.472V9H83.4257V4.656C83.4257 4.032 83.3937 3.476 83.3297 2.988H84.0257L84.1217 4.104C84.2737 3.696 84.5177 3.384 84.8537 3.168C85.1977 2.952 85.5857 2.844 86.0177 2.844ZM92.253 8.4V9H87.237V8.496L91.233 3.576H87.381V2.988H92.121V3.54L88.173 8.4H92.253ZM93.7968 2.988H94.5168V9H93.7968V2.988ZM94.6608 0.504V1.44H93.6888V0.504H94.6608ZM98.9633 9.084C98.3953 9.084 97.8993 8.956 97.4753 8.7C97.0513 8.444 96.7233 8.084 96.4913 7.62C96.2593 7.148 96.1433 6.604 96.1433 5.988C96.1433 5.364 96.2593 4.816 96.4913 4.344C96.7233 3.864 97.0553 3.496 97.4873 3.24C97.9193 2.976 98.4193 2.844 98.9873 2.844C99.3953 2.844 99.7833 2.916 100.151 3.06C100.527 3.196 100.835 3.388 101.075 3.636L100.787 4.212C100.475 3.956 100.175 3.772 99.8873 3.66C99.6073 3.54 99.3153 3.48 99.0113 3.48C98.3633 3.48 97.8513 3.704 97.4753 4.152C97.0993 4.592 96.9113 5.204 96.9113 5.988C96.9113 6.756 97.0953 7.356 97.4633 7.788C97.8393 8.22 98.3553 8.436 99.0113 8.436C99.3153 8.436 99.6073 8.38 99.8873 8.268C100.175 8.148 100.475 7.964 100.787 7.716L101.075 8.28C100.819 8.528 100.499 8.724 100.115 8.868C99.7393 9.012 99.3553 9.084 98.9633 9.084ZM105.206 2.844C106.654 2.844 107.378 3.62 107.378 5.172V9H106.646V5.22C106.646 4.62 106.522 4.18 106.274 3.9C106.034 3.62 105.654 3.48 105.134 3.48C104.534 3.48 104.05 3.664 103.682 4.032C103.314 4.4 103.13 4.896 103.13 5.52V9H102.41V0.167999H103.13V4.032C103.322 3.64 103.598 3.344 103.958 3.144C104.318 2.944 104.734 2.844 105.206 2.844ZM110.368 3.576V7.152C110.368 7.632 110.46 7.964 110.644 8.148C110.828 8.332 111.1 8.424 111.46 8.424C111.684 8.424 111.9 8.388 112.108 8.316V8.976C111.852 9.04 111.592 9.072 111.328 9.072C110.8 9.072 110.384 8.924 110.08 8.628C109.784 8.332 109.636 7.888 109.636 7.296V3.576H108.448V2.988H109.636V1.392L110.368 1.116V2.988H112.144V3.576H110.368Z" fill="#A6A3A0"/>
<path d="M12.1172 10.2H112.396V10.8H12.1172V10.2Z" fill="#A6A3A0"/>
</svg>
