<svg width="20" height="21" viewBox="0 0 20 21" fill="none" xmlns="http://www.w3.org/2000/svg">
<path d="M17.5 0.5C18.1771 0.5 18.763 0.747396 19.2578 1.24219C19.7526 1.73698 20 2.32292 20 3V14.25C20 14.9271 19.7526 15.513 19.2578 16.0078C18.763 16.5026 18.1771 16.75 17.5 16.75H11.875L6.99219 20.4219C6.83594 20.526 6.66667 20.526 6.48438 20.4219C6.32812 20.3438 6.25 20.2135 6.25 20.0312V16.75H2.5C1.82292 16.75 1.23698 16.5026 0.742188 16.0078C0.247396 15.513 0 14.9271 0 14.25V3C0 2.32292 0.247396 1.73698 0.742188 1.24219C1.23698 0.747396 1.82292 0.5 2.5 0.5H17.5Z" fill="white"/>
</svg>
