<svg width="13" height="19" viewBox="0 0 13 19" fill="none" xmlns="http://www.w3.org/2000/svg">
<path d="M12.3984 15.6719L12.75 17.3906C12.8021 17.6771 12.6849 17.8594 12.3984 17.9375C11.6172 18.1458 10.8229 18.25 10.0156 18.25C8.01042 18.25 6.27865 17.6901 4.82031 16.5703C3.36198 15.4505 2.38542 13.9792 1.89062 12.1562H0.71875C0.588542 12.1562 0.471354 12.1172 0.367188 12.0391C0.289062 11.9349 0.25 11.8177 0.25 11.6875V10.5938C0.25 10.2812 0.40625 10.125 0.71875 10.125H1.53906C1.51302 9.60417 1.52604 9.05729 1.57812 8.48438H0.71875C0.588542 8.48438 0.471354 8.44531 0.367188 8.36719C0.289062 8.26302 0.25 8.14583 0.25 8.01562V6.84375C0.25 6.53125 0.40625 6.375 0.71875 6.375H2.00781C2.58073 4.70833 3.58333 3.35417 5.01562 2.3125C6.47396 1.27083 8.14062 0.75 10.0156 0.75C10.6667 0.75 11.3438 0.815104 12.0469 0.945312C12.151 0.971354 12.2292 1.01042 12.2812 1.0625C12.3594 1.11458 12.4115 1.19271 12.4375 1.29688C12.4635 1.375 12.4635 1.45312 12.4375 1.53125L11.9688 3.25C11.8906 3.53646 11.7083 3.65365 11.4219 3.60156C10.875 3.4974 10.3802 3.44531 9.9375 3.44531C8.89583 3.44531 7.97135 3.70573 7.16406 4.22656C6.35677 4.7474 5.74479 5.46354 5.32812 6.375H10.7188C10.875 6.375 10.9922 6.4401 11.0703 6.57031C11.1745 6.67448 11.2135 6.80469 11.1875 6.96094L10.9531 8.09375C10.901 8.35417 10.7448 8.48438 10.4844 8.48438H4.74219C4.6901 8.97917 4.6901 9.52604 4.74219 10.125H9.97656C10.1328 10.125 10.25 10.1901 10.3281 10.3203C10.4323 10.4245 10.4714 10.5547 10.4453 10.7109L10.2109 11.8047C10.1589 12.0391 10.0026 12.1562 9.74219 12.1562H5.28906C5.4974 12.651 5.75781 13.1068 6.07031 13.5234C6.38281 13.9401 6.73438 14.2917 7.125 14.5781C7.54167 14.8646 7.9974 15.099 8.49219 15.2812C8.98698 15.4375 9.50781 15.5156 10.0547 15.5156C10.6276 15.5156 11.2135 15.4375 11.8125 15.2812C12.125 15.2292 12.3203 15.3594 12.3984 15.6719Z" fill="white"/>
</svg>
