<svg width="100" height="12" viewBox="0 0 100 12" fill="none" xmlns="http://www.w3.org/2000/svg">
<path d="M11.1299 8.15234C11.3447 8.23828 11.4521 8.39583 11.4521 8.625C11.4521 8.66797 11.445 8.70378 11.4307 8.73242L10.915 10.9668C10.9007 11.0384 10.8649 11.1029 10.8076 11.1602C10.7646 11.2318 10.7074 11.2819 10.6357 11.3105C10.5641 11.3535 10.4925 11.375 10.4209 11.375C7.6709 11.375 5.32194 10.401 3.37402 8.45312C1.42611 6.50521 0.452148 4.15625 0.452148 1.40625C0.452148 1.33464 0.466471 1.26302 0.495117 1.19141C0.538086 1.11979 0.588216 1.0625 0.645508 1.01953C0.717122 0.96224 0.788737 0.926432 0.860352 0.912109L3.09473 0.396484C3.12337 0.382161 3.15918 0.375 3.20215 0.375C3.43132 0.375 3.58887 0.482422 3.6748 0.697266L4.70605 3.10352C4.7347 3.16081 4.74902 3.22526 4.74902 3.29688C4.74902 3.45443 4.68457 3.59049 4.55566 3.70508L3.2666 4.75781C3.59603 5.47396 4.13314 6.20443 4.87793 6.94922C5.62272 7.69401 6.35319 8.23112 7.06934 8.56055L8.12207 7.27148C8.23665 7.14258 8.37272 7.07812 8.53027 7.07812C8.60189 7.07812 8.66634 7.09245 8.72363 7.12109L11.1299 8.15234ZM22.1385 10.088C21.2438 10.088 20.5618 9.75067 20.0925 9.076C19.6305 8.394 19.3995 7.39667 19.3995 6.084C19.3995 4.77133 19.6305 3.77767 20.0925 3.103C20.5545 2.421 21.2365 2.08 22.1385 2.08C23.0405 2.08 23.7225 2.421 24.1845 3.103C24.6465 3.77767 24.8775 4.76767 24.8775 6.073C24.8775 7.38567 24.6428 8.383 24.1735 9.065C23.7115 9.747 23.0331 10.088 22.1385 10.088ZM22.1385 9.329C22.7618 9.329 23.2201 9.065 23.5135 8.537C23.8141 8.009 23.9645 7.18767 23.9645 6.073C23.9645 4.95833 23.8141 4.14433 23.5135 3.631C23.2201 3.11033 22.7618 2.85 22.1385 2.85C21.5151 2.85 21.0531 3.11033 20.7525 3.631C20.4591 4.15167 20.3125 4.96567 20.3125 6.073C20.3125 7.18767 20.4591 8.009 20.7525 8.537C21.0531 9.065 21.5151 9.329 22.1385 9.329ZM30.1312 10V3.301H30.4062L27.1502 7.998L27.1612 7.547H32.2212V8.295H26.5232V7.613L30.2962 2.168H31.0332V10H30.1312ZM36.1879 2.08C37.1339 2.08 37.8635 2.41 38.3769 3.07C38.8902 3.72267 39.1469 4.66133 39.1469 5.886C39.1469 6.77333 39.0259 7.53233 38.7839 8.163C38.5492 8.78633 38.2045 9.263 37.7499 9.593C37.3025 9.923 36.7599 10.088 36.1219 10.088C35.6745 10.088 35.2345 10.0073 34.8019 9.846C34.3765 9.67733 33.9989 9.43533 33.6689 9.12L34.0209 8.427C34.3949 8.74233 34.7505 8.97333 35.0879 9.12C35.4252 9.25933 35.7662 9.329 36.1109 9.329C36.7855 9.329 37.3062 9.032 37.6729 8.438C38.0469 7.83667 38.2339 6.98967 38.2339 5.897V4.951L38.3769 5.237C38.3182 5.61833 38.1825 5.94833 37.9699 6.227C37.7572 6.49833 37.4895 6.711 37.1669 6.865C36.8442 7.01167 36.4885 7.085 36.0999 7.085C35.6232 7.085 35.2015 6.98233 34.8349 6.777C34.4682 6.56433 34.1822 6.271 33.9769 5.897C33.7715 5.523 33.6689 5.09033 33.6689 4.599C33.6689 4.115 33.7752 3.68233 33.9879 3.301C34.2079 2.91967 34.5085 2.62267 34.8899 2.41C35.2712 2.19 35.7039 2.08 36.1879 2.08ZM36.2319 2.839C35.7259 2.839 35.3189 3.00033 35.0109 3.323C34.7102 3.63833 34.5599 4.06 34.5599 4.588C34.5599 5.10867 34.7139 5.53033 35.0219 5.853C35.3299 6.16833 35.7369 6.326 36.2429 6.326C36.5802 6.326 36.8809 6.25267 37.1449 6.106C37.4089 5.952 37.6142 5.74667 37.7609 5.49C37.9075 5.226 37.9809 4.92533 37.9809 4.588C37.9809 4.236 37.9075 3.93167 37.7609 3.675C37.6142 3.411 37.4089 3.20567 37.1449 3.059C36.8809 2.91233 36.5765 2.839 36.2319 2.839ZM43.5756 10.077C43.0036 10.077 42.5086 9.99267 42.0906 9.824C41.6726 9.648 41.3463 9.39867 41.1116 9.076C40.8843 8.75333 40.7706 8.36833 40.7706 7.921C40.7706 7.37833 40.9539 6.92733 41.3206 6.568C41.6873 6.20867 42.1786 5.985 42.7946 5.897L42.7396 6.062C42.1676 5.952 41.7239 5.72833 41.4086 5.391C41.1006 5.05367 40.9466 4.643 40.9466 4.159C40.9466 3.73367 41.0566 3.367 41.2766 3.059C41.5039 2.74367 41.8119 2.50167 42.2006 2.333C42.5966 2.16433 43.0549 2.08 43.5756 2.08C44.0963 2.08 44.5509 2.16433 44.9396 2.333C45.3356 2.50167 45.6436 2.74367 45.8636 3.059C46.0909 3.367 46.2046 3.73367 46.2046 4.159C46.2046 4.643 46.0469 5.05733 45.7316 5.402C45.4236 5.73933 44.9873 5.95933 44.4226 6.062L44.3566 5.897C44.9946 5.985 45.4896 6.21233 45.8416 6.579C46.2009 6.93833 46.3806 7.38567 46.3806 7.921C46.3806 8.36833 46.2633 8.75333 46.0286 9.076C45.8013 9.39867 45.4786 9.648 45.0606 9.824C44.6426 9.99267 44.1476 10.077 43.5756 10.077ZM43.5756 9.329C44.1916 9.329 44.6646 9.20433 44.9946 8.955C45.3246 8.70567 45.4896 8.34267 45.4896 7.866C45.4896 7.41867 45.3099 7.07033 44.9506 6.821C44.5913 6.56433 44.1329 6.40667 43.5756 6.348C43.0183 6.40667 42.5599 6.56433 42.2006 6.821C41.8413 7.07033 41.6616 7.41867 41.6616 7.866C41.6616 8.34267 41.8266 8.70567 42.1566 8.955C42.4866 9.20433 42.9596 9.329 43.5756 9.329ZM43.5756 5.721C44.0889 5.66233 44.5033 5.50467 44.8186 5.248C45.1413 4.99133 45.3026 4.65033 45.3026 4.225C45.3026 3.785 45.1486 3.444 44.8406 3.202C44.5399 2.95267 44.1183 2.828 43.5756 2.828C43.0329 2.828 42.6076 2.95267 42.2996 3.202C41.9989 3.444 41.8486 3.785 41.8486 4.225C41.8486 4.65033 42.0063 4.99133 42.3216 5.248C42.6443 5.50467 43.0623 5.66233 43.5756 5.721ZM54.9865 10V3.301H55.2615L52.0055 7.998L52.0165 7.547H57.0765V8.295H51.3785V7.613L55.1515 2.168H55.8885V10H54.9865ZM61.4062 10.077C60.9295 10.077 60.4602 9.99267 59.9982 9.824C59.5362 9.648 59.1475 9.40967 58.8322 9.109L59.1732 8.416C59.5325 8.70933 59.8955 8.933 60.2622 9.087C60.6362 9.241 61.0175 9.318 61.4062 9.318C61.9562 9.318 62.3852 9.164 62.6932 8.856C63.0085 8.54067 63.1662 8.11533 63.1662 7.58C63.1662 7.23533 63.0965 6.93467 62.9572 6.678C62.8178 6.414 62.6198 6.20867 62.3632 6.062C62.1138 5.91533 61.8168 5.842 61.4722 5.842C61.0982 5.842 60.7608 5.919 60.4602 6.073C60.1668 6.21967 59.9065 6.447 59.6792 6.755H59.0522V2.168H63.7492V2.916H59.9542V6.084L59.6682 6.051C59.8808 5.743 60.1522 5.50467 60.4822 5.336C60.8195 5.16733 61.1972 5.083 61.6152 5.083C62.1138 5.083 62.5465 5.18933 62.9132 5.402C63.2798 5.60733 63.5622 5.897 63.7602 6.271C63.9582 6.645 64.0572 7.07767 64.0572 7.569C64.0572 8.06033 63.9472 8.49667 63.7272 8.878C63.5145 9.252 63.2102 9.54533 62.8142 9.758C62.4182 9.97067 61.9488 10.077 61.4062 10.077ZM71.849 10.077C71.277 10.077 70.782 9.99267 70.364 9.824C69.946 9.648 69.6197 9.39867 69.385 9.076C69.1577 8.75333 69.044 8.36833 69.044 7.921C69.044 7.37833 69.2274 6.92733 69.594 6.568C69.9607 6.20867 70.452 5.985 71.068 5.897L71.013 6.062C70.441 5.952 69.9974 5.72833 69.682 5.391C69.374 5.05367 69.22 4.643 69.22 4.159C69.22 3.73367 69.33 3.367 69.55 3.059C69.7774 2.74367 70.0854 2.50167 70.474 2.333C70.87 2.16433 71.3284 2.08 71.849 2.08C72.3697 2.08 72.8244 2.16433 73.213 2.333C73.609 2.50167 73.917 2.74367 74.137 3.059C74.3644 3.367 74.478 3.73367 74.478 4.159C74.478 4.643 74.3204 5.05733 74.005 5.402C73.697 5.73933 73.2607 5.95933 72.696 6.062L72.63 5.897C73.268 5.985 73.763 6.21233 74.115 6.579C74.4744 6.93833 74.654 7.38567 74.654 7.921C74.654 8.36833 74.5367 8.75333 74.302 9.076C74.0747 9.39867 73.752 9.648 73.334 9.824C72.916 9.99267 72.421 10.077 71.849 10.077ZM71.849 9.329C72.465 9.329 72.938 9.20433 73.268 8.955C73.598 8.70567 73.763 8.34267 73.763 7.866C73.763 7.41867 73.5834 7.07033 73.224 6.821C72.8647 6.56433 72.4064 6.40667 71.849 6.348C71.2917 6.40667 70.8334 6.56433 70.474 6.821C70.1147 7.07033 69.935 7.41867 69.935 7.866C69.935 8.34267 70.1 8.70567 70.43 8.955C70.76 9.20433 71.233 9.329 71.849 9.329ZM71.849 5.721C72.3624 5.66233 72.7767 5.50467 73.092 5.248C73.4147 4.99133 73.576 4.65033 73.576 4.225C73.576 3.785 73.422 3.444 73.114 3.202C72.8134 2.95267 72.3917 2.828 71.849 2.828C71.3064 2.828 70.881 2.95267 70.573 3.202C70.2724 3.444 70.122 3.785 70.122 4.225C70.122 4.65033 70.2797 4.99133 70.595 5.248C70.9177 5.50467 71.3357 5.66233 71.849 5.721ZM79.8417 10V3.301H80.1167L76.8607 7.998L76.8717 7.547H81.9317V8.295H76.2337V7.613L80.0067 2.168H80.7437V10H79.8417ZM87.1716 10V9.318L89.9106 6.282C90.2773 5.87133 90.5449 5.501 90.7136 5.171C90.8823 4.841 90.9666 4.511 90.9666 4.181C90.9666 3.74833 90.8419 3.41833 90.5926 3.191C90.3433 2.95633 89.9876 2.839 89.5256 2.839C89.1443 2.839 88.7703 2.916 88.4036 3.07C88.0369 3.21667 87.6703 3.44033 87.3036 3.741L86.9626 3.048C87.2706 2.75467 87.6593 2.52 88.1286 2.344C88.5979 2.168 89.0709 2.08 89.5476 2.08C90.0243 2.08 90.4349 2.16433 90.7796 2.333C91.1316 2.49433 91.4029 2.729 91.5936 3.037C91.7843 3.345 91.8796 3.71167 91.8796 4.137C91.8796 4.58433 91.7769 5.017 91.5716 5.435C91.3736 5.84567 91.0399 6.30767 90.5706 6.821L87.9306 9.681L87.8646 9.241H92.2096V10H87.1716ZM96.4623 2.08C97.4083 2.08 98.138 2.41 98.6513 3.07C99.1646 3.72267 99.4213 4.66133 99.4213 5.886C99.4213 6.77333 99.3003 7.53233 99.0583 8.163C98.8236 8.78633 98.479 9.263 98.0243 9.593C97.577 9.923 97.0343 10.088 96.3963 10.088C95.949 10.088 95.509 10.0073 95.0763 9.846C94.651 9.67733 94.2733 9.43533 93.9433 9.12L94.2953 8.427C94.6693 8.74233 95.025 8.97333 95.3623 9.12C95.6996 9.25933 96.0406 9.329 96.3853 9.329C97.06 9.329 97.5806 9.032 97.9473 8.438C98.3213 7.83667 98.5083 6.98967 98.5083 5.897V4.951L98.6513 5.237C98.5926 5.61833 98.457 5.94833 98.2443 6.227C98.0316 6.49833 97.764 6.711 97.4413 6.865C97.1186 7.01167 96.763 7.085 96.3743 7.085C95.8976 7.085 95.476 6.98233 95.1093 6.777C94.7426 6.56433 94.4566 6.271 94.2513 5.897C94.046 5.523 93.9433 5.09033 93.9433 4.599C93.9433 4.115 94.0496 3.68233 94.2623 3.301C94.4823 2.91967 94.783 2.62267 95.1643 2.41C95.5456 2.19 95.9783 2.08 96.4623 2.08ZM96.5063 2.839C96.0003 2.839 95.5933 3.00033 95.2853 3.323C94.9846 3.63833 94.8343 4.06 94.8343 4.588C94.8343 5.10867 94.9883 5.53033 95.2963 5.853C95.6043 6.16833 96.0113 6.326 96.5173 6.326C96.8546 6.326 97.1553 6.25267 97.4193 6.106C97.6833 5.952 97.8886 5.74667 98.0353 5.49C98.182 5.226 98.2553 4.92533 98.2553 4.588C98.2553 4.236 98.182 3.93167 98.0353 3.675C97.8886 3.411 97.6833 3.20567 97.4193 3.059C97.1553 2.91233 96.851 2.839 96.5063 2.839Z" fill="#333333"/>
</svg>
